<svg version="1.1" id="Layer_1" xmlns="http://www.w3.org/2000/svg" xmlns:xlink="http://www.w3.org/1999/xlink" x="0px" y="0px"
	 width="100%" viewBox="0 0 1000 1000" enable-background="new 0 0 1000 1000" xml:space="preserve">
<path fill="#000000" opacity="1.000000" stroke="none" 
	d="
M529.000000,1001.000000 
	C352.666656,1001.000000 176.833328,1001.000000 1.000000,1001.000000 
	C1.000000,667.666687 1.000000,334.333344 1.000000,1.000000 
	C334.333344,1.000000 667.666687,1.000000 1001.000000,1.000000 
	C1001.000000,334.333344 1001.000000,667.666687 1001.000000,1001.000000 
	C843.833313,1001.000000 686.666687,1001.000000 529.000000,1001.000000 
M441.645782,669.039978 
	C432.729126,672.899109 423.646027,674.114563 413.787720,673.275208 
	C403.257507,672.378601 393.411774,669.873718 384.021240,665.453979 
	C370.900665,659.278625 360.239136,649.849304 350.848389,638.830933 
	C339.264404,649.947632 327.849915,660.901733 316.468597,671.823975 
	C337.683838,684.637207 360.043945,691.722961 383.714294,693.800964 
	C399.618011,695.197144 415.704041,694.320618 431.379425,690.792236 
	C459.887787,684.375305 484.261566,670.106323 504.700409,649.511597 
	C513.269348,640.877380 520.953064,631.154907 527.843140,621.106995 
	C543.450378,598.346741 554.883545,573.419128 564.234253,547.469116 
	C573.895020,520.658752 580.527710,493.037872 587.271423,465.420685 
	C596.044250,429.493286 604.979126,393.604614 614.035889,357.747620 
	C620.331604,332.821655 626.719177,307.914093 633.498901,283.116760 
	C638.692505,264.121063 644.563416,245.310577 650.364258,225.633392 
	C630.596191,227.208344 611.479309,228.731400 592.382080,230.252884 
	C591.911499,232.169617 591.463867,234.025620 591.000000,235.877594 
	C583.461487,265.980469 575.928955,296.084900 568.378418,326.184784 
	C560.594421,357.215698 552.838135,388.253723 544.960632,419.260895 
	C543.346863,425.612885 542.362305,432.492126 539.147339,437.994629 
	C532.087463,450.077728 523.955811,461.553955 515.929077,473.045624 
	C511.052490,480.027313 505.555145,486.575378 500.336639,493.318268 
	C499.740143,493.248291 499.143616,493.178345 498.547119,493.108398 
	C497.698822,486.665680 495.561890,480.077393 496.269867,473.810547 
	C497.755219,460.663513 500.536652,447.645386 503.145325,434.646454 
	C508.636627,407.283783 514.419556,379.979736 519.971130,352.628967 
	C526.038574,322.736664 531.984802,292.819794 537.974915,262.911804 
	C543.648315,234.584854 549.523621,206.294907 554.752869,177.886093 
	C555.562500,173.487610 556.940796,172.959381 560.606506,172.942612 
	C590.319824,172.806793 620.073120,174.170883 649.617065,169.112854 
	C664.195679,166.616959 677.586060,161.712646 689.451843,152.976028 
	C705.375977,141.251297 716.055664,126.524300 712.781311,105.576500 
	C711.762146,99.056221 708.154175,92.940613 705.731323,86.639748 
	C705.178589,86.780525 704.625793,86.921310 704.072998,87.062088 
	C703.280823,88.625763 702.705017,90.354271 701.660522,91.725822 
	C695.855713,99.348106 690.955566,108.057770 683.855957,114.216927 
	C666.352966,129.401382 644.578491,134.586426 622.112915,134.806931 
	C563.621887,135.381012 505.120575,134.816696 446.625732,135.136795 
	C433.043152,135.211121 419.415558,136.542770 405.909912,138.147675 
	C395.243195,139.415222 386.067871,144.005402 380.956024,154.359543 
	C379.187378,157.941971 376.949127,161.333206 375.546326,165.046387 
	C373.263977,171.087646 371.492493,177.321915 369.119019,184.671097 
	C414.055939,173.236298 458.422821,172.776352 503.143127,173.037872 
	C502.361481,176.842636 501.649017,180.149826 501.005615,183.470383 
	C498.209778,197.899277 495.475189,212.340164 492.638672,226.761017 
	C490.147339,239.426620 487.533325,252.068069 485.003540,264.726196 
	C481.871704,280.396729 478.794800,296.078278 475.650330,311.746277 
	C472.125885,329.307617 468.498535,346.848419 465.017090,364.418213 
	C462.160461,378.834625 459.520538,393.293945 456.660522,407.709656 
	C453.174988,425.278015 449.490509,442.807007 446.025848,460.379425 
	C443.900818,471.157501 442.075256,481.994293 440.019501,492.786499 
	C438.933502,498.487732 443.625824,504.685211 449.541260,504.986084 
	C460.239319,505.530182 470.728577,504.452423 480.820282,500.619995 
	C486.742004,498.371155 492.649384,496.084503 498.563232,493.814850 
	C495.289948,498.943176 491.099121,502.907166 487.359558,507.259003 
	C479.762482,516.099976 471.302246,523.836182 460.762909,529.000549 
	C453.903717,532.361572 449.015930,530.867432 445.130920,524.338013 
	C443.833649,522.157776 442.870331,519.740967 442.020782,517.338135 
	C435.455017,498.767792 436.020325,479.180847 434.085663,459.967438 
	C432.948883,448.677948 432.833771,437.289490 431.956390,425.969025 
	C430.792297,410.948761 429.275879,395.956177 428.017365,380.942749 
	C426.934814,368.028259 426.296875,355.069916 424.927338,342.187805 
	C423.241791,326.333618 421.404816,310.474030 418.890533,294.735413 
	C416.220825,278.023834 412.225220,261.507507 403.214294,246.920929 
	C399.409149,240.761292 394.840698,234.372162 389.070343,230.261642 
	C373.020569,218.828629 355.581238,218.541107 337.732758,226.656326 
	C321.026672,234.252121 307.455444,246.049637 294.197510,258.324066 
	C293.374207,259.086304 292.308014,259.979980 292.112732,260.963043 
	C290.799042,267.576233 289.690338,274.230133 288.363678,281.727295 
	C291.006958,279.661285 292.995026,278.263641 294.806244,276.665558 
	C304.189362,268.386353 314.104645,260.839935 325.663239,255.872757 
	C339.468475,249.940140 346.087769,250.873260 353.669281,259.500092 
	C357.376709,263.718658 359.814606,269.312408 361.905304,274.645111 
	C369.045227,292.856689 369.932922,312.267487 371.946472,331.421600 
	C373.231628,343.646393 374.014496,355.924347 374.994232,368.180756 
	C376.013641,380.933990 376.994049,393.690369 378.000549,406.444611 
	C378.993988,419.033264 379.993439,431.621399 381.000061,444.208984 
	C381.993439,456.630859 382.961334,469.054901 384.008759,481.472260 
	C385.302429,496.808441 386.252441,512.189697 388.131714,527.455383 
	C389.626648,539.599060 392.793365,551.493103 399.091064,562.167358 
	C402.976196,568.752441 407.736694,574.871582 415.653992,576.954834 
	C426.902710,579.914551 437.518982,577.662964 447.445923,571.998962 
	C463.579773,562.793457 476.684509,550.073730 487.896301,535.490051 
	C500.424438,519.194031 512.393066,502.467529 524.569092,485.901855 
	C525.788940,484.242218 526.758911,482.398834 527.844849,480.640747 
	C528.851501,481.788574 529.096680,482.479309 528.947388,483.070404 
	C521.981079,510.646301 515.331482,538.308838 507.880127,565.753601 
	C501.098480,590.731812 492.450470,615.040222 478.032990,636.892334 
	C468.925842,650.695679 458.097778,662.498657 441.645782,669.039978 
M963.968628,844.381165 
	C964.949219,842.850220 965.929810,841.319214 967.515076,838.844177 
	C967.771606,840.785217 968.094666,841.574768 967.931946,842.246643 
	C965.321960,853.019592 962.832153,863.826843 959.939819,874.524780 
	C957.179443,884.734436 954.219421,894.903931 950.916199,904.949341 
	C947.509399,915.309448 940.538391,920.000000 929.712463,920.000000 
	C634.751038,920.000000 339.789581,919.966248 44.828281,920.146729 
	C34.983311,920.152710 27.184431,917.051819 20.072130,910.750671 
	C19.017483,909.816284 16.539879,909.575256 15.142691,910.112122 
	C11.007314,911.700928 7.083263,913.839783 1.481033,916.529480 
	C2.946212,917.177124 3.935011,917.446106 4.733954,917.992676 
	C15.268522,925.199463 27.227558,927.918884 39.647015,927.923035 
	C335.441650,928.022095 631.236267,927.975464 927.030884,928.100159 
	C937.552246,928.104614 945.828491,924.047546 953.218201,917.262817 
	C965.050476,906.399048 971.888855,892.568176 975.945251,877.350708 
	C983.724243,848.168213 991.186218,818.900696 998.570984,789.615845 
	C998.799805,788.708252 996.756042,786.216675 995.713135,786.181030 
	C991.980896,786.053833 988.218018,786.969238 984.477051,786.903625 
	C981.526428,786.851868 980.401489,788.100769 979.991455,790.685425 
	C979.713684,792.436707 979.458679,794.207214 978.976746,795.907715 
	C977.150330,802.350830 976.077942,809.183899 973.162415,815.102051 
	C968.419067,824.730713 962.648376,833.880371 956.924805,842.989441 
	C953.239868,848.854126 949.500732,854.892700 942.310425,858.420166 
	C941.148621,856.336853 939.512146,854.524780 939.101929,852.468018 
	C937.522034,844.547546 936.268738,836.559204 935.016479,828.576843 
	C933.283142,817.528137 931.953857,806.407166 929.898315,795.420654 
	C928.235901,786.534851 922.929932,783.032349 912.980103,785.998657 
	C906.166748,788.029846 901.069458,792.525452 897.030701,798.196594 
	C895.501221,800.344055 894.521301,802.882996 893.290894,805.243469 
	C893.900940,805.766235 894.510925,806.289001 895.120972,806.811768 
	C899.732971,803.371643 904.344971,799.931580 909.719482,795.922668 
	C911.425232,799.488342 913.442322,802.085388 913.898865,804.932678 
	C916.158997,819.027649 917.804138,833.221436 920.080261,847.313538 
	C921.333130,855.069885 922.679443,862.952087 925.301270,870.307983 
	C928.099976,878.160034 935.535828,879.302979 941.807678,873.694031 
	C950.909668,865.554077 957.545654,855.526428 963.968628,844.381165 
M125.546997,814.964111 
	C124.908218,816.941162 124.664780,819.181396 123.556450,820.845825 
	C120.244957,825.818787 116.879211,830.810547 112.995895,835.332275 
	C109.182442,839.772705 104.708702,843.646118 99.675827,848.604797 
	C97.676498,844.867981 95.459694,842.481567 95.168343,839.879639 
	C93.819550,827.833923 93.164207,815.712402 91.953583,803.648865 
	C90.832680,792.479431 89.727470,781.279480 87.827972,770.228271 
	C86.737000,763.881104 83.322594,758.340820 76.619072,756.027344 
	C66.088310,752.393005 51.787273,761.931946 50.134472,773.898865 
	C52.924423,771.966553 55.525326,770.164856 58.126511,768.363586 
	C67.266609,762.034485 70.783669,765.758667 71.897537,773.079529 
	C74.000374,786.900391 75.527061,800.818420 76.937042,814.732117 
	C77.930458,824.535095 78.026756,834.433044 79.144440,844.217651 
	C79.641861,848.572388 81.430275,852.846924 83.073196,856.982910 
	C84.479340,860.522827 87.991310,862.439575 91.340363,861.782898 
	C98.151115,860.447510 103.758362,856.659363 108.037148,850.979919 
	C111.194954,846.788269 114.656868,842.825684 117.983299,838.761047 
	C118.400513,838.943237 118.817719,839.125488 119.234932,839.307739 
	C118.490326,842.471497 117.722977,845.630127 117.005173,848.799927 
	C114.404152,860.285889 111.225655,871.509277 104.018417,881.179138 
	C100.387756,886.050415 91.170288,891.202454 84.761536,888.254517 
	C79.167664,885.681458 73.739304,882.748474 67.777679,879.742493 
	C65.145653,882.195251 61.706444,885.400146 57.903996,888.943542 
	C70.350807,895.550049 81.899277,897.556641 94.593689,894.181641 
	C109.643158,890.180603 119.569031,880.297791 125.739708,867.048645 
	C131.116150,855.504822 135.054977,843.161926 138.432266,830.843994 
	C145.139862,806.379456 151.023422,781.688904 157.270721,757.000061 
	C154.381561,757.000061 151.216873,756.920532 148.057495,757.016052 
	C140.629593,757.240784 139.740967,757.975098 138.028625,765.045715 
	C136.816742,770.049744 135.677734,775.071533 134.446442,780.070740 
	C131.639633,791.466675 128.796051,802.853516 125.546997,814.964111 
M597.599182,838.922974 
	C596.725769,841.312988 596.095276,843.829773 594.927734,846.066223 
	C592.579102,850.565186 589.175354,854.625427 583.711182,853.852905 
	C574.059448,852.488342 571.226135,860.406799 564.719971,865.677734 
	C578.366577,866.152954 590.605164,865.881104 602.665161,867.218933 
	C612.401001,868.299072 616.509155,862.044067 621.877808,856.238831 
	C613.084106,855.705872 604.784729,855.202881 596.315247,854.689575 
	C606.305603,847.560486 613.712891,838.613098 615.742065,829.432922 
	C619.778015,811.174255 623.369873,792.814819 626.909973,774.451599 
	C627.500366,771.389343 628.240112,770.017761 631.691284,769.880981 
	C637.696350,769.643005 643.713867,768.923340 649.652161,767.952637 
	C664.093872,765.591858 675.630371,758.368530 684.035645,746.361450 
	C685.475830,744.304199 686.311523,741.823792 687.426453,739.538879 
	C687.004333,739.271118 686.582275,739.003296 686.160217,738.735535 
	C681.739441,741.280579 675.589966,740.690857 673.795776,747.886108 
	C672.647888,752.489014 668.642029,755.522949 663.350464,756.035095 
	C657.859009,756.566528 652.400146,757.791443 646.909851,757.908997 
	C633.758362,758.190491 620.595520,757.885986 607.439514,758.027893 
	C589.658325,758.219604 574.048401,763.584778 562.577454,777.960144 
	C556.339844,785.777100 552.183167,794.495605 551.937866,805.460388 
	C557.643738,802.642212 562.774658,800.107971 567.874146,797.589294 
	C564.847839,785.658386 569.262634,773.114929 583.129883,771.159241 
	C592.514526,769.835754 602.113892,770.034546 611.759460,769.545288 
	C609.907776,778.870483 608.226624,787.431213 606.505371,795.983948 
	C603.674622,810.049866 600.817810,824.110657 597.599182,838.922974 
M755.037354,820.745361 
	C754.552795,823.785278 754.009583,826.817261 753.594604,829.866638 
	C752.369202,838.872314 750.885376,847.859009 750.132202,856.905579 
	C749.763184,861.337341 752.018799,865.814270 756.579834,866.653442 
	C762.270325,867.700562 768.161072,867.586914 773.561646,864.025085 
	C784.213013,856.999939 790.795288,846.725281 797.005859,836.058960 
	C798.013550,834.328247 799.159058,832.677795 800.240845,830.990234 
	C800.894775,832.178650 800.848450,832.981934 800.726074,833.773315 
	C799.491211,841.756836 797.860718,849.703552 797.129944,857.732361 
	C796.612061,863.421509 800.667053,866.753113 806.280579,867.044434 
	C819.083374,867.708984 827.491699,859.910889 835.516663,851.754578 
	C837.379150,849.861633 837.491333,846.246460 838.408875,843.423706 
	C837.990356,843.280396 837.571899,843.137024 837.153442,842.993652 
	C831.702698,849.191040 825.945557,855.036926 818.020020,857.984619 
	C814.280334,859.375427 811.413635,857.271484 812.148071,853.524597 
	C815.214478,837.880127 818.467712,822.271729 821.737366,806.667847 
	C823.149963,799.926147 824.768188,793.227600 826.362976,786.201050 
	C820.683105,786.201050 815.569763,786.201050 810.212158,786.201050 
	C809.469299,790.321167 808.952576,794.475098 807.939514,798.504211 
	C806.419250,804.550415 805.346680,810.901550 802.631165,816.406433 
	C799.167358,823.428040 794.665100,830.052612 789.852234,836.260437 
	C785.217529,842.238525 779.813904,847.675110 774.317749,852.896667 
	C772.724548,854.410278 769.442139,855.217773 767.335693,854.703613 
	C766.138123,854.411316 764.820312,850.625549 765.157776,848.692444 
	C767.014648,838.055420 769.495300,827.529114 771.502502,816.915771 
	C772.886169,809.599792 774.170471,802.235352 774.886719,794.833252 
	C775.362244,789.919617 771.016602,784.606262 764.922241,784.763428 
	C752.997498,785.070801 744.936768,791.755737 737.340820,799.400269 
	C735.243408,801.511169 734.664490,805.131042 733.388794,808.058472 
	C739.838989,803.896912 745.062866,799.166199 750.799988,795.172791 
	C755.704163,791.759033 759.444580,793.774719 758.885071,799.420349 
	C758.201050,806.324158 756.666992,813.143616 755.037354,820.745361 
M322.558990,855.020264 
	C326.938019,832.092957 331.317078,809.165649 335.716797,786.130005 
	C330.405426,786.130005 325.439209,786.130005 320.382599,786.130005 
	C318.669983,794.239380 318.243469,802.808105 314.980072,810.108765 
	C310.569489,819.975952 304.529877,829.269958 298.137146,838.043335 
	C293.637787,844.218201 287.480194,849.216980 281.824615,854.484924 
	C280.904236,855.342224 278.051758,855.577820 277.312317,854.854187 
	C276.037781,853.606812 274.854797,851.227600 275.143341,849.589233 
	C277.072998,838.632446 279.538147,827.770996 281.554291,816.827942 
	C282.933350,809.342712 284.213470,801.806030 284.881805,794.234436 
	C285.350403,788.925781 281.029938,785.212708 275.837341,784.964355 
	C262.660828,784.334229 254.061523,792.373413 245.901642,800.911133 
	C244.331924,802.553589 244.484314,805.841919 243.731293,808.808044 
	C249.903458,803.835022 255.199341,799.192261 260.935669,795.179016 
	C262.618805,794.001465 265.632019,794.205566 267.864044,794.646057 
	C268.540558,794.779541 269.182251,797.920105 268.917603,799.531860 
	C267.242676,809.733032 265.137329,819.864319 263.512115,830.072571 
	C262.108368,838.889832 260.920502,847.756897 260.095490,856.644470 
	C259.664429,861.288147 263.127228,866.477051 266.790039,866.797668 
	C272.598145,867.306152 278.300812,867.428650 283.779419,863.912720 
	C292.574066,858.268555 298.209595,850.073364 303.728516,841.662292 
	C305.858246,838.416443 307.749939,835.014343 309.750122,831.683472 
	C310.169464,831.924561 310.588776,832.165649 311.008118,832.406738 
	C310.914032,833.182434 310.846100,833.962402 310.721802,834.733215 
	C309.486542,842.392212 307.841644,850.012878 307.132538,857.719788 
	C306.608826,863.411621 310.665619,866.752258 316.271271,867.044434 
	C329.077271,867.711853 337.489655,859.915283 345.515961,851.755371 
	C347.378479,849.861755 347.490936,846.246643 348.408691,843.423706 
	C346.791992,843.210999 346.348175,843.380859 346.100372,843.701965 
	C341.157562,850.107483 335.275879,855.251526 327.568542,858.162354 
	C324.826050,859.198120 323.253387,858.892151 322.558990,855.020264 
M187.065155,795.415100 
	C173.462296,808.316589 164.020676,823.128784 164.985947,842.840820 
	C165.921677,861.949646 178.314865,870.200745 196.252075,866.293579 
	C207.936462,863.748474 216.891876,857.192261 224.524963,848.105103 
	C235.277512,835.304138 240.611725,821.036804 237.951736,804.324219 
	C236.170273,793.131287 227.740204,784.993042 216.224915,784.821228 
	C205.176193,784.656372 196.101166,788.570618 187.065155,795.415100 
M850.002686,830.627808 
	C848.798645,837.133118 847.499390,843.622742 846.421936,850.148987 
	C845.619995,855.006226 845.089722,859.965271 848.637146,864.115051 
	C851.698059,867.695740 859.782776,868.565308 865.964844,865.401550 
	C870.943237,862.853821 875.818542,859.825623 880.089050,856.236450 
	C887.269714,850.201416 888.181152,847.775574 887.372742,842.079285 
	C884.077576,845.048828 881.046753,848.047791 877.730896,850.689026 
	C874.716064,853.090637 871.527100,855.355713 868.142761,857.174683 
	C866.598450,858.004700 864.211548,858.148682 862.571045,857.570557 
	C861.663147,857.250610 861.025635,854.766052 861.118652,853.311829 
	C861.281311,850.771790 862.136414,848.280762 862.640747,845.757141 
	C865.769653,830.100220 868.678589,814.395935 872.063660,798.794800 
	C874.752319,786.403381 877.425354,773.949585 881.245361,761.884460 
	C883.571777,754.536621 888.944763,749.427063 897.476562,747.771179 
	C903.380615,746.625427 908.089905,749.297241 913.361755,750.059204 
	C914.750671,750.259949 916.629883,750.481873 917.569031,749.761719 
	C920.809692,747.276978 923.734436,744.380127 926.779541,741.640320 
	C926.504761,741.161072 926.230042,740.681824 925.955322,740.202576 
	C919.628113,738.808533 913.485413,738.117859 906.671753,738.717102 
	C891.581116,740.044495 880.968872,747.920593 872.021423,759.030334 
	C862.085693,771.367126 858.888794,786.311401 855.972595,801.361816 
	C854.133850,810.852112 852.024658,820.290100 850.002686,830.627808 
M684.948853,841.452637 
	C685.025940,840.462585 684.755310,839.244995 685.231934,838.516357 
	C692.847168,826.875916 699.018372,814.135132 709.759766,804.823669 
	C715.925171,799.479004 719.583069,795.330933 729.496460,801.072815 
	C732.690063,796.675110 735.897400,792.258423 739.289185,787.587891 
	C734.325317,783.738403 728.914978,784.264832 723.817200,785.795715 
	C711.581238,789.470154 704.028503,798.906982 697.040283,808.820740 
	C694.626953,812.244385 692.487488,815.861023 690.222961,819.389465 
	C689.811646,819.187134 689.400391,818.984741 688.989136,818.782349 
	C689.496826,816.190979 690.202454,813.619934 690.472351,811.003967 
	C691.093384,804.984375 692.037109,798.926880 691.857483,792.914490 
	C691.649536,785.955872 682.756897,782.759644 674.625244,785.785583 
	C666.102051,788.957153 659.364380,794.463562 653.570557,801.127197 
	C651.803467,803.159546 651.494568,806.459595 650.132202,810.252686 
	C656.805481,804.757874 662.060791,800.064575 667.743530,795.963562 
	C669.564209,794.649536 673.663330,793.715759 674.687561,794.707336 
	C676.342407,796.309509 677.237732,799.801147 676.839111,802.229797 
	C675.036560,813.211609 672.778198,824.123901 670.469727,835.015808 
	C668.286072,845.319031 665.835571,855.565674 663.497253,865.859985 
	C668.954346,865.859985 674.259888,865.859985 679.757507,865.859985 
	C681.314819,857.871033 682.853210,849.978821 684.948853,841.452637 
M416.604889,786.895142 
	C402.077820,793.519653 394.314117,806.750183 385.494904,819.147888 
	C385.820068,814.422852 387.291412,810.111755 387.547729,805.729675 
	C387.859711,800.396118 388.090240,794.724426 386.609222,789.715454 
	C385.195435,784.933777 377.492218,783.322815 371.025208,785.507874 
	C361.949371,788.574646 354.993988,794.764221 348.926605,801.858398 
	C347.380646,803.665833 347.379791,806.794800 346.513245,809.869324 
	C353.034912,804.530273 358.583832,799.680298 364.509613,795.345459 
	C366.052307,794.216919 369.615509,793.710571 370.741791,794.677002 
	C372.258972,795.978699 372.988708,799.025452 372.851898,801.249084 
	C372.595673,805.413086 371.558929,809.541565 370.697357,813.653503 
	C367.049042,831.066101 363.345795,848.467102 359.669556,865.839600 
	C364.992920,865.839600 370.295654,865.839600 375.650055,865.839600 
	C376.116943,863.174072 376.498596,860.637756 377.012939,858.128601 
	C378.338348,851.662903 378.383942,844.498108 381.359344,838.897522 
	C387.722229,826.920654 394.825989,815.217041 404.804413,805.630615 
	C410.842041,799.830261 416.773682,794.556335 425.246246,801.360474 
	C428.780212,796.475464 431.974060,792.060608 435.402588,787.321289 
	C429.226990,783.632935 423.216766,784.678345 416.604889,786.895142 
M478.984253,852.178284 
	C483.461914,844.622314 482.815186,837.469849 477.273529,830.717468 
	C472.726105,825.176392 468.019379,819.758606 463.651428,814.079956 
	C460.242920,809.648560 456.254547,805.316223 458.641968,798.793823 
	C461.033386,792.260254 467.531158,791.471558 475.168304,792.052368 
	C480.449249,792.453918 482.564178,795.685364 483.370056,803.807983 
	C485.107025,803.807983 486.866394,803.807983 488.690704,803.807983 
	C489.817078,798.341614 490.917297,793.002075 492.094757,787.287903 
	C480.301605,784.218750 468.988403,782.984802 457.876007,789.933228 
	C443.292053,799.052490 442.428528,815.098145 452.715424,825.338806 
	C457.462402,830.064514 461.904236,835.187012 465.847015,840.594360 
	C468.017731,843.571411 471.557007,846.767944 469.124542,851.353333 
	C466.691681,855.939575 463.216156,858.796570 457.655640,859.069275 
	C449.891785,859.450134 443.265869,856.829468 438.096863,852.747498 
	C434.334320,856.372803 430.904083,859.677917 427.333466,863.118225 
	C436.896912,867.481323 446.953064,867.969482 457.249542,866.280212 
	C466.253845,864.802917 472.783173,859.341614 478.984253,852.178284 
M713.157532,82.334404 
	C713.104980,84.329506 713.197510,86.341064 712.973206,88.316666 
	C712.250549,94.683838 716.200012,97.647621 721.580688,99.777283 
	C725.998779,101.525970 733.612732,98.922661 735.839600,95.477150 
	C738.881287,90.771118 738.780518,83.036926 735.897400,79.362663 
	C730.085144,71.955406 717.672241,72.876694 713.157532,82.334404 
z"/>
<path fill="#FFFFFF" opacity="1.000000" stroke="none" 
	d="
M442.044861,669.020508 
	C458.097778,662.498657 468.925842,650.695679 478.032990,636.892334 
	C492.450470,615.040222 501.098480,590.731812 507.880127,565.753601 
	C515.331482,538.308838 521.981079,510.646301 528.947388,483.070404 
	C529.096680,482.479309 528.851501,481.788574 527.844849,480.640747 
	C526.758911,482.398834 525.788940,484.242218 524.569092,485.901855 
	C512.393066,502.467529 500.424438,519.194031 487.896301,535.490051 
	C476.684509,550.073730 463.579773,562.793457 447.445923,571.998962 
	C437.518982,577.662964 426.902710,579.914551 415.653992,576.954834 
	C407.736694,574.871582 402.976196,568.752441 399.091064,562.167358 
	C392.793365,551.493103 389.626648,539.599060 388.131714,527.455383 
	C386.252441,512.189697 385.302429,496.808441 384.008759,481.472260 
	C382.961334,469.054901 381.993439,456.630859 381.000061,444.208984 
	C379.993439,431.621399 378.993988,419.033264 378.000549,406.444611 
	C376.994049,393.690369 376.013641,380.933990 374.994232,368.180756 
	C374.014496,355.924347 373.231628,343.646393 371.946472,331.421600 
	C369.932922,312.267487 369.045227,292.856689 361.905304,274.645111 
	C359.814606,269.312408 357.376709,263.718658 353.669281,259.500092 
	C346.087769,250.873260 339.468475,249.940140 325.663239,255.872757 
	C314.104645,260.839935 304.189362,268.386353 294.806244,276.665558 
	C292.995026,278.263641 291.006958,279.661285 288.363678,281.727295 
	C289.690338,274.230133 290.799042,267.576233 292.112732,260.963043 
	C292.308014,259.979980 293.374207,259.086304 294.197510,258.324066 
	C307.455444,246.049637 321.026672,234.252121 337.732758,226.656326 
	C355.581238,218.541107 373.020569,218.828629 389.070343,230.261642 
	C394.840698,234.372162 399.409149,240.761292 403.214294,246.920929 
	C412.225220,261.507507 416.220825,278.023834 418.890533,294.735413 
	C421.404816,310.474030 423.241791,326.333618 424.927338,342.187805 
	C426.296875,355.069916 426.934814,368.028259 428.017365,380.942749 
	C429.275879,395.956177 430.792297,410.948761 431.956390,425.969025 
	C432.833771,437.289490 432.948883,448.677948 434.085663,459.967438 
	C436.020325,479.180847 435.455017,498.767792 442.020782,517.338135 
	C442.870331,519.740967 443.833649,522.157776 445.130920,524.338013 
	C449.015930,530.867432 453.903717,532.361572 460.762909,529.000549 
	C471.302246,523.836182 479.762482,516.099976 487.359558,507.259003 
	C491.099121,502.907166 495.289948,498.943176 498.563232,493.814850 
	C492.649384,496.084503 486.742004,498.371155 480.820282,500.619995 
	C470.728577,504.452423 460.239319,505.530182 449.541260,504.986084 
	C443.625824,504.685211 438.933502,498.487732 440.019501,492.786499 
	C442.075256,481.994293 443.900818,471.157501 446.025848,460.379425 
	C449.490509,442.807007 453.174988,425.278015 456.660522,407.709656 
	C459.520538,393.293945 462.160461,378.834625 465.017090,364.418213 
	C468.498535,346.848419 472.125885,329.307617 475.650330,311.746277 
	C478.794800,296.078278 481.871704,280.396729 485.003540,264.726196 
	C487.533325,252.068069 490.147339,239.426620 492.638672,226.761017 
	C495.475189,212.340164 498.209778,197.899277 501.005615,183.470383 
	C501.649017,180.149826 502.361481,176.842636 503.143127,173.037872 
	C458.422821,172.776352 414.055939,173.236298 369.119019,184.671097 
	C371.492493,177.321915 373.263977,171.087646 375.546326,165.046387 
	C376.949127,161.333206 379.187378,157.941971 380.956024,154.359543 
	C386.067871,144.005402 395.243195,139.415222 405.909912,138.147675 
	C419.415558,136.542770 433.043152,135.211121 446.625732,135.136795 
	C505.120575,134.816696 563.621887,135.381012 622.112915,134.806931 
	C644.578491,134.586426 666.352966,129.401382 683.855957,114.216927 
	C690.955566,108.057770 695.855713,99.348106 701.660522,91.725822 
	C702.705017,90.354271 703.280823,88.625763 704.072998,87.062088 
	C704.625793,86.921310 705.178589,86.780525 705.731323,86.639748 
	C708.154175,92.940613 711.762146,99.056221 712.781311,105.576500 
	C716.055664,126.524300 705.375977,141.251297 689.451843,152.976028 
	C677.586060,161.712646 664.195679,166.616959 649.617065,169.112854 
	C620.073120,174.170883 590.319824,172.806793 560.606506,172.942612 
	C556.940796,172.959381 555.562500,173.487610 554.752869,177.886093 
	C549.523621,206.294907 543.648315,234.584854 537.974915,262.911804 
	C531.984802,292.819794 526.038574,322.736664 519.971130,352.628967 
	C514.419556,379.979736 508.636627,407.283783 503.145325,434.646454 
	C500.536652,447.645386 497.755219,460.663513 496.269867,473.810547 
	C495.561890,480.077393 497.698822,486.665680 498.547119,493.108398 
	C499.143616,493.178345 499.740143,493.248291 500.336639,493.318268 
	C505.555145,486.575378 511.052490,480.027313 515.929077,473.045624 
	C523.955811,461.553955 532.087463,450.077728 539.147339,437.994629 
	C542.362305,432.492126 543.346863,425.612885 544.960632,419.260895 
	C552.838135,388.253723 560.594421,357.215698 568.378418,326.184784 
	C575.928955,296.084900 583.461487,265.980469 591.000000,235.877594 
	C591.463867,234.025620 591.911499,232.169617 592.382080,230.252884 
	C611.479309,228.731400 630.596191,227.208344 650.364258,225.633392 
	C644.563416,245.310577 638.692505,264.121063 633.498901,283.116760 
	C626.719177,307.914093 620.331604,332.821655 614.035889,357.747620 
	C604.979126,393.604614 596.044250,429.493286 587.271423,465.420685 
	C580.527710,493.037872 573.895020,520.658752 564.234253,547.469116 
	C554.883545,573.419128 543.450378,598.346741 527.843140,621.106995 
	C520.953064,631.154907 513.269348,640.877380 504.700409,649.511597 
	C484.261566,670.106323 459.887787,684.375305 431.379425,690.792236 
	C415.704041,694.320618 399.618011,695.197144 383.714294,693.800964 
	C360.043945,691.722961 337.683838,684.637207 316.468597,671.823975 
	C327.849915,660.901733 339.264404,649.947632 350.848389,638.830933 
	C360.239136,649.849304 370.900665,659.278625 384.021240,665.453979 
	C393.411774,669.873718 403.257507,672.378601 413.787720,673.275208 
	C423.646027,674.114563 432.729126,672.899109 442.044861,669.020508 
z"/>
<path fill="#FFFFFF" opacity="1.000000" stroke="none" 
	d="
M963.735962,844.689087 
	C957.545654,855.526428 950.909668,865.554077 941.807678,873.694031 
	C935.535828,879.302979 928.099976,878.160034 925.301270,870.307983 
	C922.679443,862.952087 921.333130,855.069885 920.080261,847.313538 
	C917.804138,833.221436 916.158997,819.027649 913.898865,804.932678 
	C913.442322,802.085388 911.425232,799.488342 909.719482,795.922668 
	C904.344971,799.931580 899.732971,803.371643 895.120972,806.811768 
	C894.510925,806.289001 893.900940,805.766235 893.290894,805.243469 
	C894.521301,802.882996 895.501221,800.344055 897.030701,798.196594 
	C901.069458,792.525452 906.166748,788.029846 912.980103,785.998657 
	C922.929932,783.032349 928.235901,786.534851 929.898315,795.420654 
	C931.953857,806.407166 933.283142,817.528137 935.016479,828.576843 
	C936.268738,836.559204 937.522034,844.547546 939.101929,852.468018 
	C939.512146,854.524780 941.148621,856.336853 942.310425,858.420166 
	C949.500732,854.892700 953.239868,848.854126 956.924805,842.989441 
	C962.648376,833.880371 968.419067,824.730713 973.162415,815.102051 
	C976.077942,809.183899 977.150330,802.350830 978.976746,795.907715 
	C979.458679,794.207214 979.713684,792.436707 979.991455,790.685425 
	C980.401489,788.100769 981.526428,786.851868 984.477051,786.903625 
	C988.218018,786.969238 991.980896,786.053833 995.713135,786.181030 
	C996.756042,786.216675 998.799805,788.708252 998.570984,789.615845 
	C991.186218,818.900696 983.724243,848.168213 975.945251,877.350708 
	C971.888855,892.568176 965.050476,906.399048 953.218201,917.262817 
	C945.828491,924.047546 937.552246,928.104614 927.030884,928.100159 
	C631.236267,927.975464 335.441650,928.022095 39.647015,927.923035 
	C27.227558,927.918884 15.268522,925.199463 4.733954,917.992676 
	C3.935011,917.446106 2.946212,917.177124 1.481033,916.529480 
	C7.083263,913.839783 11.007314,911.700928 15.142691,910.112122 
	C16.539879,909.575256 19.017483,909.816284 20.072130,910.750671 
	C27.184431,917.051819 34.983311,920.152710 44.828281,920.146729 
	C339.789581,919.966248 634.751038,920.000000 929.712463,920.000000 
	C940.538391,920.000000 947.509399,915.309448 950.916199,904.949341 
	C954.219421,894.903931 957.179443,884.734436 959.939819,874.524780 
	C962.832153,863.826843 965.321960,853.019592 967.931946,842.246643 
	C968.094666,841.574768 967.771606,840.785217 967.515076,838.844177 
	C965.929810,841.319214 964.949219,842.850220 963.735962,844.689087 
z"/>
<path fill="#FFFFFF" opacity="1.000000" stroke="none" 
	d="
M125.757202,814.604126 
	C128.796051,802.853516 131.639633,791.466675 134.446442,780.070740 
	C135.677734,775.071533 136.816742,770.049744 138.028625,765.045715 
	C139.740967,757.975098 140.629593,757.240784 148.057495,757.016052 
	C151.216873,756.920532 154.381561,757.000061 157.270721,757.000061 
	C151.023422,781.688904 145.139862,806.379456 138.432266,830.843994 
	C135.054977,843.161926 131.116150,855.504822 125.739708,867.048645 
	C119.569031,880.297791 109.643158,890.180603 94.593689,894.181641 
	C81.899277,897.556641 70.350807,895.550049 57.903996,888.943542 
	C61.706444,885.400146 65.145653,882.195251 67.777679,879.742493 
	C73.739304,882.748474 79.167664,885.681458 84.761536,888.254517 
	C91.170288,891.202454 100.387756,886.050415 104.018417,881.179138 
	C111.225655,871.509277 114.404152,860.285889 117.005173,848.799927 
	C117.722977,845.630127 118.490326,842.471497 119.234932,839.307739 
	C118.817719,839.125488 118.400513,838.943237 117.983299,838.761047 
	C114.656868,842.825684 111.194954,846.788269 108.037148,850.979919 
	C103.758362,856.659363 98.151115,860.447510 91.340363,861.782898 
	C87.991310,862.439575 84.479340,860.522827 83.073196,856.982910 
	C81.430275,852.846924 79.641861,848.572388 79.144440,844.217651 
	C78.026756,834.433044 77.930458,824.535095 76.937042,814.732117 
	C75.527061,800.818420 74.000374,786.900391 71.897537,773.079529 
	C70.783669,765.758667 67.266609,762.034485 58.126511,768.363586 
	C55.525326,770.164856 52.924423,771.966553 50.134472,773.898865 
	C51.787273,761.931946 66.088310,752.393005 76.619072,756.027344 
	C83.322594,758.340820 86.737000,763.881104 87.827972,770.228271 
	C89.727470,781.279480 90.832680,792.479431 91.953583,803.648865 
	C93.164207,815.712402 93.819550,827.833923 95.168343,839.879639 
	C95.459694,842.481567 97.676498,844.867981 99.675827,848.604797 
	C104.708702,843.646118 109.182442,839.772705 112.995895,835.332275 
	C116.879211,830.810547 120.244957,825.818787 123.556450,820.845825 
	C124.664780,819.181396 124.908218,816.941162 125.757202,814.604126 
z"/>
<path fill="#FFFFFF" opacity="1.000000" stroke="none" 
	d="
M597.785583,838.548279 
	C600.817810,824.110657 603.674622,810.049866 606.505371,795.983948 
	C608.226624,787.431213 609.907776,778.870483 611.759460,769.545288 
	C602.113892,770.034546 592.514526,769.835754 583.129883,771.159241 
	C569.262634,773.114929 564.847839,785.658386 567.874146,797.589294 
	C562.774658,800.107971 557.643738,802.642212 551.937866,805.460388 
	C552.183167,794.495605 556.339844,785.777100 562.577454,777.960144 
	C574.048401,763.584778 589.658325,758.219604 607.439514,758.027893 
	C620.595520,757.885986 633.758362,758.190491 646.909851,757.908997 
	C652.400146,757.791443 657.859009,756.566528 663.350464,756.035095 
	C668.642029,755.522949 672.647888,752.489014 673.795776,747.886108 
	C675.589966,740.690857 681.739441,741.280579 686.160217,738.735535 
	C686.582275,739.003296 687.004333,739.271118 687.426453,739.538879 
	C686.311523,741.823792 685.475830,744.304199 684.035645,746.361450 
	C675.630371,758.368530 664.093872,765.591858 649.652161,767.952637 
	C643.713867,768.923340 637.696350,769.643005 631.691284,769.880981 
	C628.240112,770.017761 627.500366,771.389343 626.909973,774.451599 
	C623.369873,792.814819 619.778015,811.174255 615.742065,829.432922 
	C613.712891,838.613098 606.305603,847.560486 596.315247,854.689575 
	C604.784729,855.202881 613.084106,855.705872 621.877808,856.238831 
	C616.509155,862.044067 612.401001,868.299072 602.665161,867.218933 
	C590.605164,865.881104 578.366577,866.152954 564.719971,865.677734 
	C571.226135,860.406799 574.059448,852.488342 583.711182,853.852905 
	C589.175354,854.625427 592.579102,850.565186 594.927734,846.066223 
	C596.095276,843.829773 596.725769,841.312988 597.785583,838.548279 
z"/>
<path fill="#FFFFFF" opacity="1.000000" stroke="none" 
	d="
M755.268921,820.372437 
	C756.666992,813.143616 758.201050,806.324158 758.885071,799.420349 
	C759.444580,793.774719 755.704163,791.759033 750.799988,795.172791 
	C745.062866,799.166199 739.838989,803.896912 733.388794,808.058472 
	C734.664490,805.131042 735.243408,801.511169 737.340820,799.400269 
	C744.936768,791.755737 752.997498,785.070801 764.922241,784.763428 
	C771.016602,784.606262 775.362244,789.919617 774.886719,794.833252 
	C774.170471,802.235352 772.886169,809.599792 771.502502,816.915771 
	C769.495300,827.529114 767.014648,838.055420 765.157776,848.692444 
	C764.820312,850.625549 766.138123,854.411316 767.335693,854.703613 
	C769.442139,855.217773 772.724548,854.410278 774.317749,852.896667 
	C779.813904,847.675110 785.217529,842.238525 789.852234,836.260437 
	C794.665100,830.052612 799.167358,823.428040 802.631165,816.406433 
	C805.346680,810.901550 806.419250,804.550415 807.939514,798.504211 
	C808.952576,794.475098 809.469299,790.321167 810.212158,786.201050 
	C815.569763,786.201050 820.683105,786.201050 826.362976,786.201050 
	C824.768188,793.227600 823.149963,799.926147 821.737366,806.667847 
	C818.467712,822.271729 815.214478,837.880127 812.148071,853.524597 
	C811.413635,857.271484 814.280334,859.375427 818.020020,857.984619 
	C825.945557,855.036926 831.702698,849.191040 837.153442,842.993652 
	C837.571899,843.137024 837.990356,843.280396 838.408875,843.423706 
	C837.491333,846.246460 837.379150,849.861633 835.516663,851.754578 
	C827.491699,859.910889 819.083374,867.708984 806.280579,867.044434 
	C800.667053,866.753113 796.612061,863.421509 797.129944,857.732361 
	C797.860718,849.703552 799.491211,841.756836 800.726074,833.773315 
	C800.848450,832.981934 800.894775,832.178650 800.240845,830.990234 
	C799.159058,832.677795 798.013550,834.328247 797.005859,836.058960 
	C790.795288,846.725281 784.213013,856.999939 773.561646,864.025085 
	C768.161072,867.586914 762.270325,867.700562 756.579834,866.653442 
	C752.018799,865.814270 749.763184,861.337341 750.132202,856.905579 
	C750.885376,847.859009 752.369202,838.872314 753.594604,829.866638 
	C754.009583,826.817261 754.552795,823.785278 755.268921,820.372437 
z"/>
<path fill="#FFFFFF" opacity="1.000000" stroke="none" 
	d="
M322.762573,855.369751 
	C323.253387,858.892151 324.826050,859.198120 327.568542,858.162354 
	C335.275879,855.251526 341.157562,850.107483 346.100372,843.701965 
	C346.348175,843.380859 346.791992,843.210999 348.408691,843.423706 
	C347.490936,846.246643 347.378479,849.861755 345.515961,851.755371 
	C337.489655,859.915283 329.077271,867.711853 316.271271,867.044434 
	C310.665619,866.752258 306.608826,863.411621 307.132538,857.719788 
	C307.841644,850.012878 309.486542,842.392212 310.721802,834.733215 
	C310.846100,833.962402 310.914032,833.182434 311.008118,832.406738 
	C310.588776,832.165649 310.169464,831.924561 309.750122,831.683472 
	C307.749939,835.014343 305.858246,838.416443 303.728516,841.662292 
	C298.209595,850.073364 292.574066,858.268555 283.779419,863.912720 
	C278.300812,867.428650 272.598145,867.306152 266.790039,866.797668 
	C263.127228,866.477051 259.664429,861.288147 260.095490,856.644470 
	C260.920502,847.756897 262.108368,838.889832 263.512115,830.072571 
	C265.137329,819.864319 267.242676,809.733032 268.917603,799.531860 
	C269.182251,797.920105 268.540558,794.779541 267.864044,794.646057 
	C265.632019,794.205566 262.618805,794.001465 260.935669,795.179016 
	C255.199341,799.192261 249.903458,803.835022 243.731293,808.808044 
	C244.484314,805.841919 244.331924,802.553589 245.901642,800.911133 
	C254.061523,792.373413 262.660828,784.334229 275.837341,784.964355 
	C281.029938,785.212708 285.350403,788.925781 284.881805,794.234436 
	C284.213470,801.806030 282.933350,809.342712 281.554291,816.827942 
	C279.538147,827.770996 277.072998,838.632446 275.143341,849.589233 
	C274.854797,851.227600 276.037781,853.606812 277.312317,854.854187 
	C278.051758,855.577820 280.904236,855.342224 281.824615,854.484924 
	C287.480194,849.216980 293.637787,844.218201 298.137146,838.043335 
	C304.529877,829.269958 310.569489,819.975952 314.980072,810.108765 
	C318.243469,802.808105 318.669983,794.239380 320.382599,786.130005 
	C325.439209,786.130005 330.405426,786.130005 335.716797,786.130005 
	C331.317078,809.165649 326.938019,832.092957 322.762573,855.369751 
z"/>
<path fill="#FFFFFF" opacity="1.000000" stroke="none" 
	d="
M187.373505,795.221191 
	C196.101166,788.570618 205.176193,784.656372 216.224915,784.821228 
	C227.740204,784.993042 236.170273,793.131287 237.951736,804.324219 
	C240.611725,821.036804 235.277512,835.304138 224.524963,848.105103 
	C216.891876,857.192261 207.936462,863.748474 196.252075,866.293579 
	C178.314865,870.200745 165.921677,861.949646 164.985947,842.840820 
	C164.020676,823.128784 173.462296,808.316589 187.373505,795.221191 
M185.451889,815.037598 
	C185.279739,815.828064 185.213654,816.660645 184.919525,817.402771 
	C180.798676,827.799927 181.163940,838.519043 183.079025,849.197388 
	C184.632248,857.857910 192.012833,862.171021 200.100769,858.826416 
	C204.015793,857.207397 207.943268,854.222290 210.440308,850.812378 
	C221.240097,836.064392 224.726883,819.599121 219.979309,801.735840 
	C217.022995,790.612366 206.211792,790.025696 199.804733,794.560486 
	C192.728348,799.569031 188.692154,806.477295 185.451889,815.037598 
z"/>
<path fill="#FFFFFF" opacity="1.000000" stroke="none" 
	d="
M850.019775,830.189697 
	C852.024658,820.290100 854.133850,810.852112 855.972595,801.361816 
	C858.888794,786.311401 862.085693,771.367126 872.021423,759.030334 
	C880.968872,747.920593 891.581116,740.044495 906.671753,738.717102 
	C913.485413,738.117859 919.628113,738.808533 925.955322,740.202576 
	C926.230042,740.681824 926.504761,741.161072 926.779541,741.640320 
	C923.734436,744.380127 920.809692,747.276978 917.569031,749.761719 
	C916.629883,750.481873 914.750671,750.259949 913.361755,750.059204 
	C908.089905,749.297241 903.380615,746.625427 897.476562,747.771179 
	C888.944763,749.427063 883.571777,754.536621 881.245361,761.884460 
	C877.425354,773.949585 874.752319,786.403381 872.063660,798.794800 
	C868.678589,814.395935 865.769653,830.100220 862.640747,845.757141 
	C862.136414,848.280762 861.281311,850.771790 861.118652,853.311829 
	C861.025635,854.766052 861.663147,857.250610 862.571045,857.570557 
	C864.211548,858.148682 866.598450,858.004700 868.142761,857.174683 
	C871.527100,855.355713 874.716064,853.090637 877.730896,850.689026 
	C881.046753,848.047791 884.077576,845.048828 887.372742,842.079285 
	C888.181152,847.775574 887.269714,850.201416 880.089050,856.236450 
	C875.818542,859.825623 870.943237,862.853821 865.964844,865.401550 
	C859.782776,868.565308 851.698059,867.695740 848.637146,864.115051 
	C845.089722,859.965271 845.619995,855.006226 846.421936,850.148987 
	C847.499390,843.622742 848.798645,837.133118 850.019775,830.189697 
z"/>
<path fill="#FFFFFF" opacity="1.000000" stroke="none" 
	d="
M684.670288,841.769592 
	C682.853210,849.978821 681.314819,857.871033 679.757507,865.859985 
	C674.259888,865.859985 668.954346,865.859985 663.497253,865.859985 
	C665.835571,855.565674 668.286072,845.319031 670.469727,835.015808 
	C672.778198,824.123901 675.036560,813.211609 676.839111,802.229797 
	C677.237732,799.801147 676.342407,796.309509 674.687561,794.707336 
	C673.663330,793.715759 669.564209,794.649536 667.743530,795.963562 
	C662.060791,800.064575 656.805481,804.757874 650.132202,810.252686 
	C651.494568,806.459595 651.803467,803.159546 653.570557,801.127197 
	C659.364380,794.463562 666.102051,788.957153 674.625244,785.785583 
	C682.756897,782.759644 691.649536,785.955872 691.857483,792.914490 
	C692.037109,798.926880 691.093384,804.984375 690.472351,811.003967 
	C690.202454,813.619934 689.496826,816.190979 688.989136,818.782349 
	C689.400391,818.984741 689.811646,819.187134 690.222961,819.389465 
	C692.487488,815.861023 694.626953,812.244385 697.040283,808.820740 
	C704.028503,798.906982 711.581238,789.470154 723.817200,785.795715 
	C728.914978,784.264832 734.325317,783.738403 739.289185,787.587891 
	C735.897400,792.258423 732.690063,796.675110 729.496460,801.072815 
	C719.583069,795.330933 715.925171,799.479004 709.759766,804.823669 
	C699.018372,814.135132 692.847168,826.875916 685.231934,838.516357 
	C684.755310,839.244995 685.025940,840.462585 684.670288,841.769592 
z"/>
<path fill="#FFFFFF" opacity="1.000000" stroke="none" 
	d="
M416.886719,786.599182 
	C423.216766,784.678345 429.226990,783.632935 435.402588,787.321289 
	C431.974060,792.060608 428.780212,796.475464 425.246246,801.360474 
	C416.773682,794.556335 410.842041,799.830261 404.804413,805.630615 
	C394.825989,815.217041 387.722229,826.920654 381.359344,838.897522 
	C378.383942,844.498108 378.338348,851.662903 377.012939,858.128601 
	C376.498596,860.637756 376.116943,863.174072 375.650055,865.839600 
	C370.295654,865.839600 364.992920,865.839600 359.669556,865.839600 
	C363.345795,848.467102 367.049042,831.066101 370.697357,813.653503 
	C371.558929,809.541565 372.595673,805.413086 372.851898,801.249084 
	C372.988708,799.025452 372.258972,795.978699 370.741791,794.677002 
	C369.615509,793.710571 366.052307,794.216919 364.509613,795.345459 
	C358.583832,799.680298 353.034912,804.530273 346.513245,809.869324 
	C347.379791,806.794800 347.380646,803.665833 348.926605,801.858398 
	C354.993988,794.764221 361.949371,788.574646 371.025208,785.507874 
	C377.492218,783.322815 385.195435,784.933777 386.609222,789.715454 
	C388.090240,794.724426 387.859711,800.396118 387.547729,805.729675 
	C387.291412,810.111755 385.820068,814.422852 385.494904,819.147888 
	C394.314117,806.750183 402.077820,793.519653 416.886719,786.599182 
z"/>
<path fill="#FFFFFF" opacity="1.000000" stroke="none" 
	d="
M478.825378,852.521484 
	C472.783173,859.341614 466.253845,864.802917 457.249542,866.280212 
	C446.953064,867.969482 436.896912,867.481323 427.333466,863.118225 
	C430.904083,859.677917 434.334320,856.372803 438.096863,852.747498 
	C443.265869,856.829468 449.891785,859.450134 457.655640,859.069275 
	C463.216156,858.796570 466.691681,855.939575 469.124542,851.353333 
	C471.557007,846.767944 468.017731,843.571411 465.847015,840.594360 
	C461.904236,835.187012 457.462402,830.064514 452.715424,825.338806 
	C442.428528,815.098145 443.292053,799.052490 457.876007,789.933228 
	C468.988403,782.984802 480.301605,784.218750 492.094757,787.287903 
	C490.917297,793.002075 489.817078,798.341614 488.690704,803.807983 
	C486.866394,803.807983 485.107025,803.807983 483.370056,803.807983 
	C482.564178,795.685364 480.449249,792.453918 475.168304,792.052368 
	C467.531158,791.471558 461.033386,792.260254 458.641968,798.793823 
	C456.254547,805.316223 460.242920,809.648560 463.651428,814.079956 
	C468.019379,819.758606 472.726105,825.176392 477.273529,830.717468 
	C482.815186,837.469849 483.461914,844.622314 478.825378,852.521484 
z"/>
<path fill="#FFFFFF" opacity="1.000000" stroke="none" 
	d="
M713.462585,82.054062 
	C717.672241,72.876694 730.085144,71.955406 735.897400,79.362663 
	C738.780518,83.036926 738.881287,90.771118 735.839600,95.477150 
	C733.612732,98.922661 725.998779,101.525970 721.580688,99.777283 
	C716.200012,97.647621 712.250549,94.683838 712.973206,88.316666 
	C713.197510,86.341064 713.104980,84.329506 713.462585,82.054062 
M729.954529,82.643959 
	C729.950439,83.806244 730.423157,85.328964 729.862549,86.070580 
	C726.885864,90.008217 730.268188,91.719070 732.097656,94.364807 
	C736.119385,86.982254 736.007446,83.868347 731.624939,80.171715 
	C728.120605,77.215744 724.415161,77.152939 720.967834,79.091553 
	C723.767029,80.037888 726.607971,80.998360 729.954529,82.643959 
M718.106567,93.621010 
	C718.720947,93.421158 719.865356,93.235611 719.871155,93.019318 
	C719.978577,89.041725 719.949768,85.060463 719.949768,81.079971 
	C715.049744,84.587296 715.151733,88.636795 718.106567,93.621010 
M728.283264,96.183746 
	C728.563354,95.798721 729.160400,95.181213 729.074768,95.064468 
	C728.159668,93.816757 727.192810,92.594696 726.126404,91.473839 
	C725.143555,90.440842 724.021912,89.539902 722.666504,88.314095 
	C721.952271,91.588196 721.490723,93.704071 720.939575,96.230934 
	C723.047607,96.397148 725.404236,96.582954 728.283264,96.183746 
z"/>
<path fill="#000000" opacity="1.000000" stroke="none" 
	d="
M185.703918,814.719360 
	C188.692154,806.477295 192.728348,799.569031 199.804733,794.560486 
	C206.211792,790.025696 217.022995,790.612366 219.979309,801.735840 
	C224.726883,819.599121 221.240097,836.064392 210.440308,850.812378 
	C207.943268,854.222290 204.015793,857.207397 200.100769,858.826416 
	C192.012833,862.171021 184.632248,857.857910 183.079025,849.197388 
	C181.163940,838.519043 180.798676,827.799927 184.919525,817.402771 
	C185.213654,816.660645 185.279739,815.828064 185.703918,814.719360 
z"/>
<path fill="#000000" opacity="1.000000" stroke="none" 
	d="
M729.701782,82.301392 
	C726.607971,80.998360 723.767029,80.037888 720.967834,79.091553 
	C724.415161,77.152939 728.120605,77.215744 731.624939,80.171715 
	C736.007446,83.868347 736.119385,86.982254 732.097656,94.364807 
	C730.268188,91.719070 726.885864,90.008217 729.862549,86.070580 
	C730.423157,85.328964 729.950439,83.806244 729.701782,82.301392 
z"/>
<path fill="#000000" opacity="1.000000" stroke="none" 
	d="
M717.810059,93.309387 
	C715.151733,88.636795 715.049744,84.587296 719.949768,81.079971 
	C719.949768,85.060463 719.978577,89.041725 719.871155,93.019318 
	C719.865356,93.235611 718.720947,93.421158 717.810059,93.309387 
z"/>
<path fill="#000000" opacity="1.000000" stroke="none" 
	d="
M728.022095,96.476257 
	C725.404236,96.582954 723.047607,96.397148 720.939575,96.230934 
	C721.490723,93.704071 721.952271,91.588196 722.666504,88.314095 
	C724.021912,89.539902 725.143555,90.440842 726.126404,91.473839 
	C727.192810,92.594696 728.159668,93.816757 729.074768,95.064468 
	C729.160400,95.181213 728.563354,95.798721 728.022095,96.476257 
z"/>
</svg>